<svg width="32" height="34" viewBox="0 0 32 34" fill="none" xmlns="http://www.w3.org/2000/svg">
<g clip-path="url(#clip0_43_404)">
<path d="M22 12.3967C22 14.0406 21.3679 15.6172 20.2426 16.7796C19.1174 17.942 17.5913 18.595 16 18.595C14.4087 18.595 12.8826 17.942 11.7574 16.7796C10.6321 15.6172 10 14.0406 10 12.3967C10 10.7528 10.6321 9.1762 11.7574 8.01379C12.8826 6.85137 14.4087 6.19833 16 6.19833C17.5913 6.19833 19.1174 6.85137 20.2426 8.01379C21.3679 9.1762 22 10.7528 22 12.3967Z" fill="black"/>
<path fill-rule="evenodd" clip-rule="evenodd" d="M0 16.5289C0 12.1452 1.68571 7.94098 4.68629 4.84121C7.68687 1.74144 11.7565 0 16 0C20.2435 0 24.3131 1.74144 27.3137 4.84121C30.3143 7.94098 32 12.1452 32 16.5289C32 20.9127 30.3143 25.1169 27.3137 28.2166C24.3131 31.3164 20.2435 33.0578 16 33.0578C11.7565 33.0578 7.68687 31.3164 4.68629 28.2166C1.68571 25.1169 0 20.9127 0 16.5289ZM16 2.06612C13.3636 2.06626 10.7807 2.83546 8.54881 4.28518C6.31688 5.7349 4.52657 7.80622 3.38393 10.2607C2.24129 12.7152 1.79277 15.4532 2.09 18.1594C2.38722 20.8657 3.41811 23.4302 5.064 25.5578C6.484 23.1942 9.61 20.6612 16 20.6612C22.39 20.6612 25.514 23.1921 26.936 25.5578C28.5819 23.4302 29.6128 20.8657 29.91 18.1594C30.2072 15.4532 29.7587 12.7152 28.6161 10.2607C27.4734 7.80622 25.6831 5.7349 23.4512 4.28518C21.2193 2.83546 18.6364 2.06626 16 2.06612Z" fill="black" fill-opacity="0.8"/>
</g>
<defs>
<clipPath id="clip0_43_404">
<rect width="32" height="33.0578" fill="white"/>
</clipPath>
</defs>
</svg>
