<svg width="20" height="23" viewBox="0 0 20 23" fill="none" xmlns="http://www.w3.org/2000/svg">
<g clip-path="url(#clip0_52_42)">
<path d="M14.6774 12.9301C15.8878 11.2785 16.4299 9.23074 16.1953 7.19656C15.9607 5.16239 14.9667 3.2918 13.4122 1.95904C11.8576 0.626277 9.85713 -0.0703699 7.81099 0.00847151C5.76485 0.0873129 3.82393 0.935828 2.37653 2.38426C0.929137 3.83269 0.0820105 5.77422 0.00463324 7.82042C-0.072744 9.86661 0.625334 11.8666 1.95921 13.4202C3.29308 14.9738 5.16438 15.9665 7.19872 16.1996C9.23306 16.4328 11.2804 15.8892 12.9312 14.6776H12.9299C12.9674 14.7276 13.0074 14.7751 13.0524 14.8214L17.8649 19.6339C18.0993 19.8684 18.4173 20.0003 18.7489 20.0004C19.0805 20.0005 19.3985 19.8689 19.6331 19.6345C19.8676 19.4001 19.9995 19.0822 19.9996 18.7506C19.9997 18.419 19.8681 18.1009 19.6337 17.8664L14.8212 13.0539C14.7765 13.0086 14.7285 12.9681 14.6774 12.9301ZM14.9999 8.12513C14.9999 9.02796 14.8221 9.92196 14.4766 10.7561C14.1311 11.5902 13.6247 12.3481 12.9863 12.9865C12.3479 13.6249 11.59 14.1313 10.7559 14.4768C9.92178 14.8223 9.02779 15.0001 8.12495 15.0001C7.22211 15.0001 6.32811 14.8223 5.494 14.4768C4.65989 14.1313 3.90199 13.6249 3.26359 12.9865C2.62519 12.3481 2.11878 11.5902 1.77328 10.7561C1.42777 9.92196 1.24995 9.02796 1.24995 8.12513C1.24995 6.30176 1.97428 4.55308 3.26359 3.26377C4.5529 1.97445 6.30158 1.25013 8.12495 1.25013C9.94831 1.25013 11.697 1.97445 12.9863 3.26377C14.2756 4.55308 14.9999 6.30176 14.9999 8.12513Z" fill="black"/>
</g>
<rect x="1" y="21" width="19" height="2" fill="#1B2228"/>
<defs>
<clipPath id="clip0_52_42">
<rect width="20" height="20" fill="white"/>
</clipPath>
</defs>
</svg>
